<svg xmlns:ev="http://www.w3.org/2001/xml-events" xmlns="http://www.w3.org/2000/svg" xmlns:xlink="http://www.w3.org/1999/xlink" version="1.1" id="Layer_1" x="0px" y="0px" viewBox="0 0 1307.3 240" enable-background="new 0 0 1307.3 240" xml:space="preserve">
<g>
	<path fill="#161616" d="M1154.5,120.7c-6.8-4.5-14.3-7.7-21.4-11.7c-4.6-2.6-9.5-4.9-13.5-8.2c-6.8-5.6-5.4-16.6,1.7-21.4   c10.2-6.8,27.1-3,28.9,10.9c0,0.3,0.3,0.5,0.6,0.5h15.4c0.4,0,0.7-0.3,0.6-0.7c-0.8-9.6-4.5-17.6-11.3-22.7   c-6.5-4.9-13.9-7.5-21.8-7.5c-40.7,0-44.4,43.1-22.5,56.7c2.5,1.6,24,12.4,31.6,17.1s10,13.3,6.7,20.1c-3,6.2-10.8,10.5-18.6,10   c-8.5-0.5-15.1-5.1-17.4-12.3c-0.4-1.3-0.6-3.8-0.6-4.9c0-0.3-0.3-0.6-0.6-0.6h-16.7c-0.3,0-0.6,0.3-0.6,0.6   c0,12.1,3,18.8,11.2,24.9c7.7,5.8,16.1,8.2,24.8,8.2c22.8,0,34.6-12.9,37-26.3C1170.1,140.3,1166.2,128.5,1154.5,120.7z"/>
  <path fill="#161616" d="M429.4,62.1H422h-8.1c-0.3,0-0.5,0.2-0.6,0.4l-13.7,45.2c-0.2,0.6-1,0.6-1.2,0l-13.7-45.2   c-0.1-0.3-0.3-0.4-0.6-0.4H376h-7.4h-10c-0.3,0-0.6,0.3-0.6,0.6v115.4c0,0.3,0.3,0.6,0.6,0.6h16.7c0.3,0,0.6-0.3,0.6-0.6V90.4   c0-0.7,1-0.8,1.2-0.2l13.8,45.5l1,3.2c0.1,0.3,0.3,0.4,0.6,0.4h12.8c0.3,0,0.5-0.2,0.6-0.4l1-3.2l13.8-45.5   c0.2-0.7,1.2-0.5,1.2,0.2v87.7c0,0.3,0.3,0.6,0.6,0.6h16.7c0.3,0,0.6-0.3,0.6-0.6V62.7c0-0.3-0.3-0.6-0.6-0.6L429.4,62.1   L429.4,62.1z"/>
  <path fill="#161616" d="M898.8,62.1c-0.3,0-0.5,0.2-0.6,0.4l-13.7,45.2c-0.2,0.6-1,0.6-1.2,0l-13.7-45.2c-0.1-0.3-0.3-0.4-0.6-0.4   h-25.4c-0.3,0-0.6,0.3-0.6,0.6v115.4c0,0.3,0.3,0.6,0.6,0.6h16.7c0.3,0,0.6-0.3,0.6-0.6V90.4c0-0.7,1-0.8,1.2-0.2l13.8,45.5l1,3.2   c0.1,0.3,0.3,0.4,0.6,0.4h12.8c0.3,0,0.5-0.2,0.6-0.4l1-3.2l13.8-45.5c0.2-0.7,1.2-0.5,1.2,0.2v87.7c0,0.3,0.3,0.6,0.6,0.6h16.7   c0.3,0,0.6-0.3,0.6-0.6V62.7c0-0.3-0.3-0.6-0.6-0.6L898.8,62.1L898.8,62.1z"/>
  <path fill="#161616" d="M683.4,62.1h-31.1h-16.7h-31.1c-0.3,0-0.6,0.3-0.6,0.6v14.4c0,0.3,0.3,0.6,0.6,0.6H635v100.4   c0,0.3,0.3,0.6,0.6,0.6h16.7c0.3,0,0.6-0.3,0.6-0.6V77.7h30.5c0.3,0,0.6-0.3,0.6-0.6V62.7C684,62.4,683.8,62.1,683.4,62.1z"/>
  <path fill="#161616" d="M781.9,178.7h15.2c0.4,0,0.7-0.4,0.6-0.8L766.3,62.1c-0.1-0.3-0.3-0.4-0.6-0.4h-5.8h-10.2h-5.8   c-0.3,0-0.5,0.2-0.6,0.4l-31.4,115.8c-0.1,0.4,0.2,0.8,0.6,0.8h15.2c0.3,0,0.5-0.2,0.6-0.4l9.1-33.7c0.1-0.3,0.3-0.4,0.6-0.4h33.6   c0.3,0,0.5,0.2,0.6,0.4l9.1,33.7C781.4,178.5,781.7,178.7,781.9,178.7z M742,127.7l12.2-45.1c0.2-0.6,1-0.6,1.2,0l12.2,45.1   c0.1,0.4-0.2,0.8-0.6,0.8h-24.4C742.2,128.5,741.9,128.1,742,127.7z"/>
  <path fill="#161616" d="M1041.1,178.7h15.2c0.4,0,0.7-0.4,0.6-0.8l-31.4-115.8c-0.1-0.3-0.3-0.4-0.6-0.4h-5.8h-10.2h-5.8   c-0.3,0-0.5,0.2-0.6,0.4l-31.4,115.8c-0.1,0.4,0.2,0.8,0.6,0.8h15.2c0.3,0,0.5-0.2,0.6-0.4l9.1-33.7c0.1-0.3,0.3-0.4,0.6-0.4h33.6   c0.3,0,0.5,0.2,0.6,0.4l9.1,33.7C1040.6,178.5,1040.8,178.7,1041.1,178.7z M1001.2,127.7l12.2-45.1c0.2-0.6,1-0.6,1.2,0l12.2,45.1   c0.1,0.4-0.2,0.8-0.6,0.8h-24.4C1001.4,128.5,1001.1,128.1,1001.2,127.7z"/>
  <path fill="#161616" d="M507.6,161.6v-35.8c0-0.3,0.3-0.6,0.6-0.6h44.5c0.3,0,0.6-0.3,0.6-0.6v-14.4c0-0.3-0.3-0.6-0.6-0.6h-44.5   c-0.3,0-0.6-0.3-0.6-0.6V78.4c0-0.3,0.3-0.6,0.6-0.6h50.6c0.3,0,0.6-0.3,0.6-0.6V62.8c0-0.3-0.3-0.6-0.6-0.6h-51.2h-17.3   c-0.3,0-0.6,0.3-0.6,0.6v15v31.9v15.6v37v15.8c0,0.3,0.3,0.6,0.6,0.6h17.3h53.3c0.3,0,0.6-0.3,0.6-0.6v-15.2c0-0.3-0.3-0.6-0.6-0.6   h-52.8C507.8,162.2,507.6,162,507.6,161.6z"/>
  <path fill="#161616" d="M1307.1,177.7l-57.8-59.7c-0.2-0.2-0.2-0.6,0-0.8l52-54c0.4-0.4,0.1-1-0.4-1h-21.3c-0.2,0-0.3,0.1-0.4,0.2   l-44.1,45.8c-0.4,0.4-1,0.1-1-0.4v-45c0-0.3-0.3-0.6-0.6-0.6h-16.7c-0.3,0-0.6,0.3-0.6,0.6v115.4c0,0.3,0.3,0.6,0.6,0.6h16.7   c0.3,0,0.6-0.3,0.6-0.6v-50.8c0-0.5,0.7-0.8,1-0.4l50,51.6c0.1,0.1,0.3,0.2,0.4,0.2h21.3C1307.2,178.7,1307.5,178,1307.1,177.7z"/>
</g>
  <g>
	<polygon fill="#E17726" stroke="#E17726" stroke-linecap="round" stroke-linejoin="round" points="243.9,0 142.8,75 161.6,30.8     "/>
    <g>
		<polygon fill="#E27625" stroke="#E27625" stroke-linecap="round" stroke-linejoin="round" points="10.7,0 110.9,75.7 93,30.8       "/>
      <polygon fill="#E27625" stroke="#E27625" stroke-linecap="round" stroke-linejoin="round" points="207.5,173.9 180.6,215.1     238.2,231 254.7,174.8   "/>
      <polygon fill="#E27625" stroke="#E27625" stroke-linecap="round" stroke-linejoin="round" points="0,174.8 16.4,231 73.9,215.1     47.1,173.9   "/>
      <polygon fill="#E27625" stroke="#E27625" stroke-linecap="round" stroke-linejoin="round" points="70.8,104.3 54.8,128.5     111.8,131.1 109.9,69.6   "/>
      <polygon fill="#E27625" stroke="#E27625" stroke-linecap="round" stroke-linejoin="round" points="183.8,104.3 144.1,68.9     142.8,131.1 199.8,128.5   "/>
      <polygon fill="#E27625" stroke="#E27625" stroke-linecap="round" stroke-linejoin="round" points="73.9,215.1 108.4,198.4     78.7,175.2   "/>
      <polygon fill="#E27625" stroke="#E27625" stroke-linecap="round" stroke-linejoin="round" points="146.2,198.4 180.6,215.1     175.9,175.2   "/>
	</g>
    <g>
		<polygon fill="#D5BFB2" stroke="#D5BFB2" stroke-linecap="round" stroke-linejoin="round" points="180.6,215.1 146.2,198.4     149,220.8 148.7,230.3   "/>
      <polygon fill="#D5BFB2" stroke="#D5BFB2" stroke-linecap="round" stroke-linejoin="round" points="73.9,215.1 105.9,230.3     105.7,220.8 108.4,198.4   "/>
	</g>
    <polygon fill="#233447" stroke="#233447" stroke-linecap="round" stroke-linejoin="round" points="106.5,160.4 77.9,152    98.1,142.7  "/>
    <polygon fill="#233447" stroke="#233447" stroke-linecap="round" stroke-linejoin="round" points="148.1,160.4 156.5,142.7    176.8,152  "/>
    <g>
		<polygon fill="#CC6228" stroke="#CC6228" stroke-linecap="round" stroke-linejoin="round" points="73.9,215.1 78.9,173.9     47.1,174.8   "/>
      <polygon fill="#CC6228" stroke="#CC6228" stroke-linecap="round" stroke-linejoin="round" points="175.7,173.9 180.6,215.1     207.5,174.8   "/>
      <polygon fill="#CC6228" stroke="#CC6228" stroke-linecap="round" stroke-linejoin="round" points="199.8,128.5 142.8,131.1     148.1,160.4 156.5,142.7 176.8,152   "/>
      <polygon fill="#CC6228" stroke="#CC6228" stroke-linecap="round" stroke-linejoin="round" points="77.9,152 98.1,142.7     106.5,160.4 111.8,131.1 54.8,128.5   "/>
	</g>
    <g>
		<polygon fill="#E27525" stroke="#E27525" stroke-linecap="round" stroke-linejoin="round" points="54.8,128.5 78.7,175.2     77.9,152   "/>
      <polygon fill="#E27525" stroke="#E27525" stroke-linecap="round" stroke-linejoin="round" points="176.8,152 175.9,175.2     199.8,128.5   "/>
      <polygon fill="#E27525" stroke="#E27525" stroke-linecap="round" stroke-linejoin="round" points="111.8,131.1 106.5,160.4     113.2,195 114.7,149.4   "/>
      <polygon fill="#E27525" stroke="#E27525" stroke-linecap="round" stroke-linejoin="round" points="142.8,131.1 140,149.3     141.4,195 148.1,160.4   "/>
	</g>
    <polygon fill="#F5841F" stroke="#F5841F" stroke-linecap="round" stroke-linejoin="round" points="148.1,160.4 141.4,195    146.2,198.4 175.9,175.2 176.8,152  "/>
    <polygon fill="#F5841F" stroke="#F5841F" stroke-linecap="round" stroke-linejoin="round" points="77.9,152 78.7,175.2    108.4,198.4 113.2,195 106.5,160.4  "/>
    <polygon fill="#C0AC9D" stroke="#C0AC9D" stroke-linecap="round" stroke-linejoin="round" points="148.7,230.3 149,220.8    146.4,218.6 108.2,218.6 105.7,220.8 105.9,230.3 73.9,215.1 85.1,224.3 107.8,240 146.7,240 169.5,224.3 180.6,215.1  "/>
    <polygon fill="#161616" stroke="#161616" stroke-linecap="round" stroke-linejoin="round" points="146.2,198.4 141.4,195    113.2,195 108.4,198.4 105.7,220.8 108.2,218.6 146.4,218.6 149,220.8  "/>
    <g>
		<polygon fill="#763E1A" stroke="#763E1A" stroke-linecap="round" stroke-linejoin="round" points="248.2,79.9 256.7,38.5 243.9,0     146.2,72.5 183.8,104.3 236.9,119.8 248.6,106.1 243.5,102.4 251.6,95 245.4,90.2 253.5,84   "/>
      <polygon fill="#763E1A" stroke="#763E1A" stroke-linecap="round" stroke-linejoin="round" points="-2.1,38.5 6.5,79.9 1,84     9.2,90.2 3,95 11.1,102.4 6,106.1 17.7,119.8 70.8,104.3 108.4,72.5 10.7,0   "/>
	</g>
    <polygon fill="#F5841F" stroke="#F5841F" stroke-linecap="round" stroke-linejoin="round" points="236.9,119.8 183.8,104.3    199.8,128.5 175.9,175.2 207.5,174.8 254.7,174.8  "/>
    <polygon fill="#F5841F" stroke="#F5841F" stroke-linecap="round" stroke-linejoin="round" points="70.8,104.3 17.7,119.8 0,174.8    47.1,174.8 78.7,175.2 54.8,128.5  "/>
    <polygon fill="#F5841F" stroke="#F5841F" stroke-linecap="round" stroke-linejoin="round" points="142.8,131.1 146.2,72.5    161.6,30.8 93,30.8 108.4,72.5 111.8,131.1 113.1,149.5 113.2,195 141.4,195 141.5,149.5  "/>
</g>
</svg>
