<svg viewBox="0 0 270 250" fill="none" xmlns="http://www.w3.org/2000/svg">
<path fill-rule="evenodd" clip-rule="evenodd" d="M270 0H0V250H270V0ZM208.055 83.8876C225.697 83.8876 239.999 69.5859 239.999 51.9438C239.999 34.3017 225.697 20 208.055 20C190.413 20 176.112 34.3017 176.112 51.9438C176.112 69.5859 190.413 83.8876 208.055 83.8876ZM208.054 94.9217C184.314 95.331 165.076 76.093 165.076 52.3524C165.076 44.9847 167.122 37.6169 170.397 31.4771C158.526 26.9746 145.838 24.5187 132.739 24.5187C75.8438 24.5187 30 70.7718 30 127.667C30 184.563 76.2532 230.407 133.149 229.997C190.044 229.588 235.888 183.744 235.479 126.849C235.479 113.75 233.023 101.061 228.52 89.6005C222.38 93.2844 215.422 94.9217 208.054 94.9217Z" fill="currentColor"/>
</svg>
