<svg xmlns="http://www.w3.org/2000/svg" style="position: absolute; width: 0; height: 0;">
  <defs>
    <!-- TOKEN BOND MASK -->
    <mask id="icon__static/token-bond__mask" width="36" height="36" x="4" y="4" maskUnits="userSpaceOnUse">
      <circle cx="22" cy="22" r="17.6" fill="white"/>
    </mask>
    <!-- TOKEN UNISWAP MASK -->
    <mask id="icon__static/token-uniswap__mask" width="30" height="30" x="5" y="7" maskUnits="userSpaceOnUse">
      <circle cx="20" cy="22" r="15" fill="white"/>
    </mask>
    <!-- TOKEN AAVE GRADIENT -->
    <linearGradient id="icon__static/aave__gradient" x1="-3.46667" y1="7.46667" x2="41.6" y2="32.5333"
                    gradientUnits="userSpaceOnUse">
      <stop stop-color="#2EBAC6"/>
      <stop offset="1" stop-color="#B6509E"/>
    </linearGradient>
  </defs>
  <!-- TOKEN BOND -->
  <symbol id="icon__static/token-bond" viewBox="0 0 44 44" fill="none">
    <rect rx="22" width="44" height="44" fill="#ff4339"/>
    <path
      fill="#fff"
      d="M22.084 19.631h-.169c-2.284 0-4.061 1.862-4.061 4.231v4.57L22 25.3l4.146 3.13v-4.569c0-2.285-1.862-4.146-4.062-4.23z"
    />
    <g mask="url(#icon__static/token-bond__mask)">
      <path
        fill="#fff"
        d="M4.4 4.4v34.016l10.577-7.87v-8.969l-1.946-1.523L22 13.284l8.97 6.77-1.947 1.523v8.97L39.6 38.415V4.4H4.4z"
      />
    </g>
  </symbol>
  <!-- TOKEN UNISWAP -->
  <symbol id="icon__static/token-uniswap" viewBox="0 0 42 44" fill="none">
    <rect y="2" width="40" height="40" rx="20" fill="#FF4339"/>
    <path
      d="M20.0731 19.9805H19.9288C17.9817 19.9805 16.4673 21.567 16.4673 23.5862V27.4805L20.0009 24.8122L23.5346 27.4805V23.5862C23.5346 21.6391 21.9481 20.0526 20.0731 19.9805Z"
      fill="white"/>
    <g mask="url(#icon__static/token-uniswap__mask)">
      <path
        d="M5 7V35.9904L14.0144 29.2837V21.6394L12.3558 20.3413L20 14.5721L27.6442 20.3413L25.9856 21.6394V29.2837L35 35.9904V7H5Z"
        fill="white"/>
    </g>
    <rect x="23" y="1" width="18" height="18" rx="9" fill="#FF4339" stroke="white" stroke-width="2"/>
    <path
      d="M30.1107 4.85275C29.9698 4.82925 29.9638 4.82649 30.0301 4.81553C30.1572 4.79451 30.4572 4.82316 30.664 4.87603C31.1466 4.99944 31.5858 5.31557 32.0546 5.87702L32.1792 6.02617L32.3573 5.99536C33.1079 5.86562 33.8715 5.96874 34.5102 6.28609C34.6859 6.3734 34.9629 6.5472 34.9975 6.59186C35.0086 6.60609 35.0288 6.69771 35.0425 6.79548C35.0899 7.13372 35.0662 7.39298 34.97 7.58663C34.9177 7.692 34.9148 7.7254 34.95 7.81558C34.9781 7.88755 35.0564 7.94081 35.1339 7.9407C35.2926 7.94046 35.4634 7.66449 35.5426 7.2805L35.5741 7.12798L35.6363 7.20386C35.978 7.62021 36.2463 8.18802 36.2924 8.59219L36.3044 8.69757L36.247 8.60177C36.1482 8.43693 36.0488 8.32471 35.9217 8.2342C35.6924 8.07105 35.4501 8.01554 34.8082 7.97915C34.2285 7.94629 33.9004 7.89303 33.575 7.77892C33.0215 7.58479 32.7425 7.32625 32.0849 6.39832C31.7929 5.98617 31.6124 5.75813 31.4328 5.57449C31.0248 5.15721 30.6239 4.93837 30.1107 4.85275Z"
      fill="white"/>
    <path
      d="M35.1284 5.77278C35.143 5.4966 35.1778 5.31443 35.2478 5.14806C35.2755 5.08222 35.3015 5.02832 35.3055 5.02832C35.3095 5.02832 35.2974 5.07692 35.2787 5.13632C35.2278 5.29778 35.2194 5.51861 35.2545 5.77555C35.299 6.10155 35.3243 6.14859 35.6447 6.50074C35.7949 6.66592 35.9697 6.87424 36.033 6.96368L36.1482 7.12631L36.033 7.01009C35.8921 6.86796 35.5682 6.59077 35.4966 6.55115C35.4486 6.52458 35.4415 6.52504 35.4119 6.55673C35.3846 6.58592 35.3788 6.6298 35.3751 6.83722C35.3692 7.16051 35.3282 7.36801 35.2294 7.57549C35.1759 7.6877 35.1674 7.66375 35.2158 7.53709C35.2519 7.44252 35.2556 7.40095 35.2554 7.08799C35.2548 6.45918 35.1854 6.30801 34.7784 6.04905C34.6754 5.98345 34.5054 5.88884 34.4009 5.83879C34.2964 5.78875 34.2134 5.74516 34.2164 5.7419C34.2279 5.72957 34.6248 5.85417 34.7846 5.92028C35.0222 6.0186 35.0614 6.03135 35.0903 6.01949C35.1097 6.01153 35.119 5.95093 35.1284 5.77278Z"
      fill="white"/>
    <path
      d="M30.3845 6.84829C30.0984 6.42474 29.9215 5.77534 29.9598 5.28988L29.9716 5.13965L30.0367 5.15243C30.159 5.17641 30.3698 5.26081 30.4685 5.3253C30.7394 5.50225 30.8567 5.73523 30.976 6.33348C31.0109 6.50872 31.0568 6.70702 31.0779 6.77415C31.1118 6.88221 31.2402 7.13462 31.3445 7.29854C31.4197 7.4166 31.3698 7.47255 31.2036 7.45641C30.9499 7.43178 30.6062 7.17663 30.3845 6.84829Z"
      fill="white"/>
    <path
      d="M34.781 10.0008C33.4444 9.42189 32.9736 8.91941 32.9736 8.07158C32.9736 7.94681 32.9776 7.84473 32.9825 7.84473C32.9874 7.84473 33.0391 7.8859 33.0974 7.93624C33.3685 8.17008 33.672 8.26995 34.5122 8.40181C35.0067 8.47941 35.2849 8.54208 35.5416 8.63364C36.3574 8.92468 36.8622 9.51529 36.9826 10.3197C37.0175 10.5535 36.997 10.9918 36.9403 11.2229C36.8956 11.4053 36.7589 11.7342 36.7227 11.7469C36.7126 11.7504 36.7028 11.7089 36.7002 11.6526C36.6865 11.3505 36.5446 11.0564 36.3063 10.8361C36.0353 10.5857 35.6712 10.3863 34.781 10.0008Z"
      fill="white"/>
    <path
      d="M33.8429 10.2416C33.8262 10.1344 33.7971 9.99754 33.7784 9.93742L33.7443 9.82812L33.8076 9.9046C33.8953 10.0104 33.9646 10.1459 34.0233 10.3263C34.0681 10.4639 34.0731 10.5049 34.0728 10.7286C34.0725 10.9483 34.0669 10.9943 34.0255 11.1182C33.9602 11.3136 33.8793 11.4522 33.7434 11.6009C33.4992 11.8682 33.1853 12.0162 32.7323 12.0776C32.6536 12.0882 32.4241 12.1062 32.2223 12.1175C31.7138 12.1459 31.3792 12.2047 31.0785 12.3183C31.0352 12.3346 30.9966 12.3446 30.9927 12.3404C30.9805 12.3273 31.1853 12.196 31.3544 12.1084C31.5928 11.9848 31.8302 11.9175 32.362 11.8222C32.6247 11.7751 32.896 11.718 32.9649 11.6953C33.6155 11.4807 33.95 10.927 33.8429 10.2416Z"
      fill="white"/>
    <path
      d="M34.4558 11.4118C34.2782 11.0012 34.2374 10.6047 34.3347 10.2349C34.3451 10.1954 34.3618 10.1631 34.3719 10.1631C34.382 10.1631 34.4239 10.1875 34.465 10.2172C34.5469 10.2765 34.711 10.3763 35.1482 10.6327C35.6939 10.9527 36.005 11.2005 36.2166 11.4836C36.4019 11.7315 36.5165 12.0139 36.5717 12.3583C36.603 12.5533 36.5846 13.0226 36.5381 13.219C36.3914 13.8383 36.0504 14.3247 35.5641 14.6085C35.4929 14.6501 35.4289 14.6843 35.422 14.6844C35.415 14.6846 35.441 14.6136 35.4797 14.5266C35.6432 14.1588 35.6619 13.801 35.5382 13.4027C35.4625 13.1588 35.308 12.8612 34.9963 12.3583C34.6338 11.7736 34.5449 11.618 34.4558 11.4118Z"
      fill="white"/>
    <path
      d="M29.4353 13.6276C29.9313 13.1771 30.5484 12.857 31.1106 12.7588C31.3529 12.7164 31.7565 12.7332 31.9809 12.795C32.3405 12.894 32.6622 13.1158 32.8295 13.3799C32.993 13.6381 33.0631 13.8631 33.1362 14.3637C33.165 14.5612 33.1963 14.7595 33.2058 14.8044C33.2607 15.0639 33.3674 15.2712 33.4996 15.3754C33.7097 15.5408 34.0714 15.551 34.4273 15.4017C34.4877 15.3763 34.5401 15.3588 34.5438 15.3628C34.5567 15.3766 34.3775 15.5056 34.2511 15.5735C34.081 15.6649 33.9458 15.7003 33.766 15.7003C33.4401 15.7003 33.1696 15.522 32.9438 15.1583C32.8994 15.0867 32.7995 14.8724 32.7219 14.682C32.4835 14.0971 32.3658 13.919 32.089 13.724C31.8481 13.5544 31.5375 13.5239 31.3038 13.6472C30.9968 13.8091 30.9112 14.2311 31.131 14.4985C31.2184 14.6048 31.3814 14.6964 31.5146 14.7142C31.7639 14.7476 31.9781 14.5436 31.9781 14.2729C31.9781 14.0971 31.9153 13.9968 31.7572 13.92C31.5412 13.8152 31.3091 13.9378 31.3102 14.156C31.3107 14.2491 31.3483 14.3074 31.4351 14.3497C31.4907 14.3768 31.492 14.3789 31.4466 14.3687C31.2485 14.3246 31.2021 14.0676 31.3614 13.897C31.5527 13.6923 31.9482 13.7826 32.084 14.0622C32.1411 14.1796 32.1477 14.4134 32.098 14.5546C31.9866 14.8706 31.662 15.0368 31.3326 14.9464C31.1084 14.8847 31.0171 14.8181 30.7467 14.5186C30.277 13.998 30.0946 13.8972 29.4174 13.7835L29.2876 13.7617L29.4353 13.6276Z"
      fill="white"/>
    <path d="M27.231 4.31134C28.7998 6.35946 29.8803 7.20447 30.0004 7.383C30.0996 7.53042 30.0622 7.66294 29.8924 7.76681C29.798 7.82456 29.6038 7.88307 29.5065 7.88307C29.3966 7.88307 29.3588 7.83744 29.3588 7.83744C29.2951 7.77239 29.2592 7.78376 28.9317 7.1586C28.4772 6.39988 28.0967 5.77049 28.0864 5.75995C28.0624 5.73558 28.0628 5.7364 28.8854 7.31961C29.0183 7.64959 28.9118 7.77072 28.9118 7.81771C28.9118 7.91332 28.8876 7.96357 28.7779 8.09513C28.5951 8.31446 28.5134 8.56091 28.4545 9.07096C28.3883 9.64272 28.2024 10.0466 27.6871 10.7378C27.3855 11.1425 27.3362 11.2166 27.26 11.3797C27.1642 11.5851 27.1378 11.7001 27.1271 11.9594C27.1158 12.2337 27.1378 12.4108 27.2157 12.673C27.2839 12.9025 27.3551 13.054 27.537 13.3571C27.694 13.6187 27.7844 13.8131 27.7844 13.8892C27.7844 13.9497 27.7952 13.9498 28.0385 13.8906C28.6207 13.7492 29.0935 13.5005 29.3594 13.1956C29.524 13.0069 29.5626 12.9027 29.5639 12.6443C29.5647 12.4751 29.5592 12.4397 29.5167 12.3424C29.4475 12.184 29.3215 12.0524 29.0439 11.8483C28.6802 11.5808 28.5249 11.3655 28.482 11.0694C28.4468 10.8264 28.4876 10.655 28.6888 10.2014C28.8971 9.73183 28.9487 9.53174 28.9836 9.05847C29.0061 8.7527 29.0374 8.63211 29.119 8.53532C29.2042 8.43438 29.2809 8.4002 29.4917 8.36922C29.8354 8.31872 30.0542 8.22308 30.2341 8.04478C30.3902 7.8901 30.4555 7.74106 30.4655 7.5167L30.4731 7.34664L30.3859 7.23728C30.0701 6.84121 27.0196 4 27.0001 4C26.996 4 27.0999 4.14011 27.231 4.31134ZM27.9617 12.2697C28.0331 12.1337 27.9952 11.9589 27.8757 11.8734C27.7629 11.7927 27.5876 11.8308 27.5876 11.9359C27.5876 11.968 27.6041 11.9914 27.6413 12.012C27.7039 12.0466 27.7084 12.0856 27.6592 12.1652C27.6093 12.2459 27.6133 12.3168 27.6705 12.365C27.7628 12.4427 27.8933 12.4 27.9617 12.2697Z"
          fill="white"/>
    <path d="M30.6902 8.45861C30.5288 8.51197 30.372 8.69607 30.3234 8.88912C30.2938 9.00689 30.3106 9.21347 30.355 9.27727C30.4267 9.38032 30.496 9.40747 30.6837 9.40605C31.0511 9.40329 31.3705 9.23362 31.4076 9.02152C31.4381 8.84766 31.2978 8.6067 31.1046 8.50092C31.0048 8.44636 30.7928 8.42471 30.6902 8.45861ZM31.1197 8.82023C31.1764 8.73355 31.1516 8.63986 31.0552 8.5765C30.8717 8.45585 30.5942 8.55569 30.5942 8.74235C30.5942 8.83526 30.7389 8.93664 30.8716 8.93664C30.9599 8.93664 31.0807 8.87995 31.1197 8.82023Z"
          fill="white"/>
    <path
      d="M32 43C36.9856 43 41 38.9856 41 34C41 29.0144 36.9856 25 32 25C27.0144 25 23 29.0144 23 34C23 38.9856 27.0144 43 32 43Z"
      fill="#FF4339" stroke="white" stroke-width="2"/>
    <path
      d="M34.2 35.2664C34.2 34.0998 33.5 33.6998 32.1 33.5331C31.1 33.3998 30.9 33.1331 30.9 32.6664C30.9 32.1997 31.2334 31.8998 31.9 31.8998C32.5 31.8998 32.8334 32.0998 33 32.5998C33.0334 32.6998 33.1334 32.7664 33.2334 32.7664H33.7667C33.9 32.7664 34 32.6664 34 32.5331V32.4998C33.8667 31.7664 33.2667 31.1998 32.5 31.1331V30.3331C32.5 30.1998 32.4 30.0998 32.2334 30.0664H31.7334C31.6 30.0664 31.5 30.1664 31.4667 30.3331V31.0998C30.4667 31.2331 29.8334 31.8998 29.8334 32.7331C29.8334 33.8331 30.5 34.2664 31.9 34.4331C32.8334 34.5998 33.1334 34.7998 33.1334 35.3331C33.1334 35.8665 32.6667 36.2331 32.0334 36.2331C31.1667 36.2331 30.8667 35.8664 30.7667 35.3664C30.7334 35.2331 30.6334 35.1664 30.5334 35.1664H29.9667C29.8334 35.1664 29.7334 35.2664 29.7334 35.3998V35.4331C29.8667 36.2664 30.4 36.8664 31.5 37.0331V37.8331C31.5 37.9664 31.6 38.0664 31.7667 38.0998H32.2667C32.4 38.0998 32.5 37.9998 32.5334 37.8331V37.0331C33.5334 36.8664 34.2 36.1664 34.2 35.2664Z"
      fill="white"/>
    <path
      d="M30.3002 38.7663C27.7002 37.833 26.3668 34.933 27.3335 32.3663C27.8335 30.9663 28.9335 29.8996 30.3002 29.3996C30.4335 29.333 30.5002 29.233 30.5002 29.0663V28.5996C30.5002 28.4663 30.4335 28.3663 30.3002 28.333C30.2668 28.333 30.2002 28.333 30.1668 28.3663C27.0002 29.3663 25.2668 32.733 26.2668 35.8996C26.8668 37.7663 28.3002 39.1996 30.1668 39.7996C30.3002 39.8663 30.4335 39.7996 30.4668 39.6663C30.5002 39.633 30.5002 39.5996 30.5002 39.533V39.0663C30.5002 38.9663 30.4002 38.833 30.3002 38.7663ZM33.8335 28.3663C33.7002 28.2996 33.5668 28.3663 33.5335 28.4996C33.5002 28.533 33.5002 28.5663 33.5002 28.633V29.0996C33.5002 29.233 33.6002 29.3663 33.7002 29.433C36.3002 30.3663 37.6335 33.2663 36.6668 35.833C36.1668 37.233 35.0668 38.2996 33.7002 38.7996C33.5668 38.8663 33.5002 38.9663 33.5002 39.133V39.5996C33.5002 39.733 33.5668 39.833 33.7002 39.8663C33.7335 39.8663 33.8002 39.8663 33.8335 39.833C37.0002 38.833 38.7335 35.4663 37.7335 32.2996C37.1335 30.3996 35.6668 28.9663 33.8335 28.3663Z"
      fill="white"/>
  </symbol>
  <!-- TOKEN AAVE -->
  <symbol id="icon__static/aave" viewBox="0 0 40 40" fill="none">
    <path d="M20 0C8.956 0 0 8.956 0 20C0 31.044 8.956 40 20 40C31.044 40 40 31.044 40 20C40 8.956 31.044 0 20 0Z"
          fill="url(#icon__static/aave__gradient)"/>
    <path
      d="M23.6754 23.9785L20.6272 16.7593C20.6031 16.6935 20.5903 16.6243 20.5893 16.5545C20.5834 16.407 20.6367 16.2631 20.7379 16.1534C20.7903 16.1011 20.8535 16.0603 20.9234 16.0338C20.9933 16.0073 21.0682 15.9957 21.143 15.9998C21.2562 16.0014 21.3662 16.0372 21.4577 16.1022C21.553 16.1719 21.6275 16.2652 21.6734 16.3725L24.5729 23.4352L27.4725 16.3725C27.5192 16.2649 27.5947 16.1716 27.691 16.1022C27.7826 16.0372 27.8925 16.0014 28.0057 15.9998C28.0801 15.9961 28.1544 16.0079 28.2238 16.0344C28.2931 16.0609 28.3559 16.1014 28.4079 16.1534C28.5102 16.2627 28.5646 16.4066 28.5594 16.5545C28.5584 16.6243 28.5456 16.6935 28.5215 16.7593L25.4734 23.9785C25.4212 24.1371 25.3195 24.2758 25.1827 24.3752C25.0458 24.4747 24.8805 24.5299 24.7099 24.5332H24.4389C24.2683 24.5299 24.103 24.4747 23.9661 24.3752C23.8292 24.2758 23.7276 24.1371 23.6754 23.9785Z"
      fill="white"/>
    <path
      d="M29.8558 24.3115C29.8041 24.2607 29.7635 24.2003 29.7365 24.1338C29.7094 24.0673 29.6965 23.9962 29.6984 23.9246V16.6144C29.6966 16.5412 29.7095 16.4684 29.7365 16.4C29.7635 16.3317 29.804 16.2692 29.8558 16.2162C29.9065 16.1638 29.9681 16.1225 30.0364 16.095C30.1047 16.0675 30.1783 16.0546 30.2521 16.0569H35.2061C35.2759 16.0553 35.3452 16.0681 35.4095 16.0946C35.4738 16.1211 35.5316 16.1606 35.5791 16.2105C35.6297 16.2573 35.6698 16.3138 35.6969 16.3765C35.724 16.4391 35.7375 16.5066 35.7365 16.5746C35.7385 16.6419 35.7255 16.7088 35.6983 16.7707C35.6711 16.8326 35.6304 16.888 35.5791 16.933C35.5296 16.9808 35.4709 17.0184 35.4064 17.0438C35.3418 17.0692 35.2728 17.0818 35.2032 17.0809H30.8233V19.7433H34.7632C34.8329 19.7417 34.9023 19.7545 34.9666 19.781C35.0309 19.8075 35.0887 19.847 35.1362 19.8969C35.1862 19.9441 35.2259 20.0007 35.253 20.0633C35.28 20.1258 35.2938 20.1931 35.2935 20.261C35.2955 20.3283 35.2825 20.3952 35.2553 20.4571C35.2282 20.519 35.1875 20.5744 35.1362 20.6194C35.087 20.6668 35.0288 20.7043 34.9648 20.7297C34.9008 20.7551 34.8323 20.7679 34.7632 20.7673H30.8233V23.4411H35.2032C35.2735 23.439 35.3434 23.4517 35.4082 23.4782C35.473 23.5047 35.5313 23.5444 35.5791 23.5947C35.6301 23.6418 35.6704 23.6988 35.6975 23.7619C35.7246 23.8251 35.7379 23.8931 35.7365 23.9616C35.7385 24.0289 35.7255 24.0959 35.6983 24.1578C35.6711 24.2197 35.6304 24.275 35.5791 24.32C35.5294 24.3673 35.4706 24.4044 35.4061 24.4293C35.3415 24.4542 35.2726 24.4664 35.2032 24.4651H30.2521C30.1785 24.4703 30.1046 24.4592 30.0359 24.4326C29.9673 24.406 29.9057 24.3646 29.8558 24.3115Z"
      fill="white"/>
    <path
      d="M21.3174 23.7739L18.2663 16.5547C18.2143 16.3965 18.1131 16.2582 17.9768 16.1588C17.8405 16.0594 17.6758 16.0039 17.5057 16H17.2376C17.067 16.0033 16.9018 16.0585 16.7649 16.1579C16.628 16.2574 16.5263 16.3961 16.4741 16.5547L15.1482 19.7006H14.1429C13.9983 19.7021 13.8601 19.759 13.7582 19.8591C13.6562 19.9591 13.5987 20.0943 13.5979 20.2354V20.2411C13.5987 20.3822 13.6562 20.5173 13.7582 20.6174C13.8601 20.7174 13.9983 20.7743 14.1429 20.7758H14.682L13.4172 23.7739C13.3931 23.8396 13.3803 23.9088 13.3794 23.9787C13.3734 24.1262 13.4268 24.2701 13.528 24.3797C13.5803 24.4321 13.6436 24.4729 13.7134 24.4994C13.7833 24.5259 13.8582 24.5375 13.933 24.5333C14.0463 24.5318 14.1562 24.496 14.2478 24.4309C14.3431 24.3612 14.4175 24.268 14.4634 24.1607L15.8593 20.7758H16.818C16.9626 20.7743 17.1007 20.7174 17.2027 20.6174C17.3046 20.5173 17.3622 20.3822 17.363 20.2411V20.2268C17.3622 20.0857 17.3046 19.9506 17.2027 19.8505C17.1007 19.7505 16.9626 19.6936 16.818 19.6921H16.2993L17.3717 17.098L20.2712 24.1607C20.3171 24.268 20.3916 24.3612 20.4869 24.4309C20.5784 24.496 20.6884 24.5318 20.8016 24.5333C20.8769 24.5379 20.9524 24.5265 21.0228 24.5C21.0932 24.4735 21.1569 24.4325 21.2096 24.3797C21.3098 24.2696 21.362 24.1258 21.3553 23.9787C21.359 23.9087 21.347 23.8389 21.3203 23.7739H21.3174Z"
      fill="white"/>
    <path
      d="M12.2066 23.7739L9.15839 16.5547C9.10604 16.3956 9.00396 16.2566 8.86649 16.1571C8.72903 16.0576 8.56308 16.0027 8.39198 16H8.12388C7.95327 16.0033 7.78798 16.0585 7.65109 16.1579C7.51421 16.2574 7.41257 16.3961 7.36038 16.5547L6.03445 19.7006H5.02908C4.88452 19.7021 4.74636 19.759 4.64441 19.8591C4.54246 19.9591 4.4849 20.0943 4.48414 20.2354V20.2411C4.4849 20.3822 4.54246 20.5173 4.64441 20.6174C4.74636 20.7174 4.88452 20.7743 5.02908 20.7758H5.56819L4.30347 23.7739C4.27937 23.8396 4.26657 23.9088 4.26558 23.9787C4.25966 24.1262 4.31299 24.2701 4.4142 24.3797C4.46656 24.4321 4.5298 24.4729 4.59967 24.4994C4.66955 24.5259 4.74442 24.5375 4.81927 24.5333C4.93249 24.5318 5.04245 24.496 5.13399 24.4309C5.22928 24.3612 5.30374 24.268 5.34964 24.1607L6.7455 20.7758H7.71007C7.85514 20.7751 7.99404 20.7185 8.09662 20.6184C8.1992 20.5182 8.25716 20.3827 8.25793 20.2411V20.2268C8.25716 20.0852 8.1992 19.9497 8.09662 19.8495C7.99404 19.7494 7.85514 19.6928 7.71007 19.6921H7.19427L8.25793 17.098L11.1575 24.1607C11.2034 24.268 11.2778 24.3612 11.3731 24.4309C11.4647 24.496 11.5746 24.5318 11.6878 24.5333C11.7632 24.5379 11.8386 24.5265 11.909 24.5C11.9794 24.4735 12.0431 24.4325 12.0958 24.3797C12.196 24.2696 12.2483 24.1258 12.2415 23.9787C12.2452 23.9087 12.2333 23.8389 12.2066 23.7739Z"
      fill="white"/>
  </symbol>
  <!-- TX PROGRESS -->
  <symbol id="icon__static/tx-progress" viewBox="0 0 180 161" fill="none">
    <path d="M95.991 145.741a40.925 40.925 0 01-4.324-2.271" stroke="url(#paint0_linear)" stroke-width="2" stroke-miterlimit="10" stroke-linecap="round"/>
    <path d="M28.052 159.605h-7.455" stroke="url(#paint1_linear)" stroke-width="2" stroke-miterlimit="10" stroke-linecap="round"/>
    <path opacity=".24" d="M114.271 61.836c-17.859 0-33.246 10.626-40.126 25.893a43.745 43.745 0 00-3.875 18.043c0 4.262.604 8.383 1.741 12.281h5.391a38.622 38.622 0 01-1.993-12.281c0-1.458.084-2.888.238-4.304 2.148-19.403 18.617-34.501 38.624-34.501 21.467 0 38.862 17.384 38.862 38.805 0 14.033-7.455 26.314-18.63 33.127a38.666 38.666 0 01-20.232 5.678c-8.101 0-15.612-2.468-21.832-6.715v2.958c0 .967-.28 1.878-.772 2.649 6.599 3.968 14.335 6.239 22.604 6.239 12.285 0 23.391-5.033 31.365-13.136 7.82-7.921 12.636-18.8 12.636-30.8 0-24.267-19.698-43.936-44.001-43.936z" fill="url(#paint2_linear)"/>
    <path d="M12.693 159.605H9" stroke="url(#paint3_linear)" stroke-width="2" stroke-miterlimit="10" stroke-linecap="round"/>
    <path opacity=".24" d="M81.684 118.053h-9.673a43.782 43.782 0 01-1.741-12.281c0-6.435 1.39-12.533 3.875-18.043 0 0-.154 5.903 1.502 13.739 1.067 5.075 2.907 10.963 6.037 16.585z" fill="url(#paint4_linear)"/>
    <path opacity=".24" d="M145.636 136.572c-7.974 8.103-19.08 13.136-31.365 13.136-8.269 0-16.005-2.272-22.604-6.239a4.918 4.918 0 00.772-2.65v-3.995a4.922 4.922 0 00-4.928-4.921h6.346c8.916 6.351 21.86 9.912 40.646 6.996 3.496-.533 7.202-1.304 11.133-2.327z" fill="url(#paint5_linear)"/>
    <path d="M114.271 110.763a4.616 4.616 0 004.619-4.613 4.616 4.616 0 00-4.619-4.612 4.616 4.616 0 00-4.619 4.612 4.616 4.616 0 004.619 4.613z" stroke="url(#paint6_linear)" stroke-width="2" stroke-miterlimit="10" stroke-linecap="round"/>
    <path d="M114.271 101.538v-23.58" stroke="url(#paint7_linear)" stroke-width="2" stroke-miterlimit="10" stroke-linecap="round"/>
    <path d="M117.009 109.866l6.921 7.528" stroke="url(#paint8_linear)" stroke-width="2" stroke-miterlimit="10" stroke-linecap="round"/>
    <path opacity=".24" d="M120 41.663h-11.457v4.164H120v-4.164z" fill="url(#paint9_linear)"/>
    <path d="M52.145 6.867a1.42 1.42 0 001.965.35l.983-.672.688.995a1.42 1.42 0 001.966.35c.645-.448.814-1.331.365-1.962l-.674-1.01.982-.672c.646-.449.815-1.332.365-1.963a1.437 1.437 0 00-1.98-.364l-.982.673-.674-.982a1.437 1.437 0 00-1.98-.364 1.417 1.417 0 00-.364 1.976l.673.982-.982.673c-.632.462-.8 1.346-.351 1.99z" fill="url(#paint10_linear)"/>
    <path opacity=".24" d="M23.082 97.922l1.348 1.346a1.369 1.369 0 010 1.934l-1.348 1.346a1.374 1.374 0 01-1.938 0l-1.347-1.346a1.369 1.369 0 010-1.934l1.348-1.346a1.374 1.374 0 011.937 0z" fill="url(#paint11_linear)"/>
    <path opacity=".24" d="M101.846 10.133a3.367 3.367 0 003.369-3.364 3.367 3.367 0 00-3.369-3.365 3.367 3.367 0 00-3.37 3.365 3.367 3.367 0 003.37 3.364z" fill="url(#paint12_linear)"/>
    <path opacity=".24" d="M121.642 17.451l2.485 2.496a1.368 1.368 0 010 1.935l-2.485 2.48a1.373 1.373 0 01-1.937 0l-2.486-2.48a1.37 1.37 0 010-1.935l2.486-2.482a1.361 1.361 0 011.937-.014z" fill="url(#paint13_linear)"/>
    <path d="M158.511 38.649a1.33 1.33 0 001.853.322l.927-.645.646.926a1.33 1.33 0 001.853.322c.604-.42.758-1.248.337-1.85l-.646-.926.927-.645c.604-.42.758-1.247.337-1.85a1.338 1.338 0 00-1.868-.337l-.926.645-.646-.925a1.336 1.336 0 00-1.867-.336 1.342 1.342 0 00-.337 1.864l.646.925-.927.645c-.576.435-.744 1.262-.309 1.865z" fill="url(#paint14_linear)"/>
    <path opacity=".24" d="M47.399 72.687a4.504 4.504 0 004.507-4.5c0-2.486-2.018-4.5-4.507-4.5a4.504 4.504 0 00-4.507 4.5c0 2.485 2.018 4.5 4.507 4.5z" fill="url(#paint15_linear)"/>
    <path opacity=".24" d="M77.374 26.312l2.486 2.481a1.37 1.37 0 010 1.935l-2.486 2.481a1.374 1.374 0 01-1.937 0l-2.485-2.481a1.37 1.37 0 010-1.935l2.485-2.481a1.374 1.374 0 011.938 0z" fill="url(#paint16_linear)"/>
    <path d="M101.13 150.69v3.981c0 1.332-.52 2.537-1.376 3.421a4.9 4.9 0 01-3.552 1.514H70.13a4.934 4.934 0 01-4.928-4.935v-3.981a4.934 4.934 0 014.928-4.935h26.072c1.727 0 3.257.897 4.127 2.243a4.89 4.89 0 01.801 2.692z" stroke="url(#paint17_linear)" stroke-width="2" stroke-miterlimit="10" stroke-linecap="round"/>
    <path opacity=".16" d="M58.8 145.754h31.618a2.302 2.302 0 002.302-2.299v-.196a2.302 2.302 0 00-2.302-2.299H58.8a2.302 2.302 0 00-2.303 2.299v.196a2.302 2.302 0 002.303 2.299z" fill="url(#paint18_linear)"/>
    <path opacity=".16" d="M67.504 159.605h31.618a2.302 2.302 0 002.303-2.299v-.196a2.302 2.302 0 00-2.303-2.299H67.504a2.302 2.302 0 00-2.302 2.299v.196a2.302 2.302 0 002.302 2.299z" fill="url(#paint19_linear)"/>
    <path opacity=".16" d="M58.35 127.306l-7.904 30.575a2.304 2.304 0 01-2.794 1.655l-.183-.042a2.3 2.3 0 01-1.657-2.79l7.905-30.576a2.304 2.304 0 012.794-1.654l.182.042a2.298 2.298 0 011.657 2.79z" fill="url(#paint20_linear)"/>
    <path d="M57.69 129.857l-6.514 25.193a4.945 4.945 0 01-6.01 3.546l-3.874-.995a4.937 4.937 0 01-3.553-6l6.515-25.192a4.945 4.945 0 016.009-3.547l3.861.995a4.928 4.928 0 013.566 6z" stroke="url(#paint21_linear)" stroke-width="2" stroke-miterlimit="10" stroke-linecap="round"/>
    <path opacity=".16" d="M65.637 131.918h31.618a2.303 2.303 0 002.302-2.3v-.196a2.302 2.302 0 00-2.302-2.299H65.637a2.302 2.302 0 00-2.303 2.299v.196c0 1.262 1.025 2.3 2.303 2.3z" fill="url(#paint22_linear)"/>
    <path fill-rule="evenodd" clip-rule="evenodd" d="M99.968 37.162a3.5 3.5 0 013.507-3.5h22.169a3.499 3.499 0 013.506 3.497c-.012 1.936-1.578 3.503-3.506 3.503h-22.169a3.5 3.5 0 01-3.507-3.5zm3.507-5.5a5.5 5.5 0 100 11h4.068v8.684a54.663 54.663 0 00-25.35 9.914 1.017 1.017 0 00-.11-.131l-6.585-6.575a1 1 0 00-1.414 1.415l6.502 6.493c-12.918 10.031-21.228 25.7-21.228 43.31a54.642 54.642 0 003.117 18.231v2.98a5.92 5.92 0 001.492 3.935h-2.528a5.93 5.93 0 00-3.236.952l.455-1.762v-.003a5.928 5.928 0 00-4.286-7.217h-.002l-3.857-.995h-.003a5.945 5.945 0 00-7.224 4.263v.002l-6.515 25.193v.002c-.812 3.172 1.1 6.391 4.269 7.216l.003.001.14.035H36.18a1 1 0 000 2h33.891l.058.001h26.072l.057-.001h73.933a1 1 0 100-2h-41.229c23.184-6.415 40.207-27.641 40.207-52.833 0-17.769-8.46-33.56-21.575-43.58l6.244-6.222a1 1 0 10-1.411-1.417l-6.464 6.44A54.632 54.632 0 00121 51.346v-8.684h4.644c3.041 0 5.489-2.469 5.506-5.494v-.006a5.5 5.5 0 00-5.506-5.5h-22.169zM49.897 158.605h15.796a5.917 5.917 0 01-1.491-3.934v-3.981c0-1.508.563-2.887 1.491-3.935H61.44a5.93 5.93 0 01-5.84-4.818L52.144 155.3v.002a5.927 5.927 0 01-2.247 3.303zm43.528-21.766c0-1.505-.56-2.878-1.485-3.922h2.535a5.934 5.934 0 005.928-5.934v-3.982c0-3.27-2.65-5.935-5.928-5.935H72.772a42.836 42.836 0 01-1.502-11.294c0-23.714 19.249-42.936 43.001-42.936s43.001 19.222 43.001 42.936c0 23.713-19.249 42.936-43.001 42.936a43.27 43.27 0 01-13.971-2.305 5.913 5.913 0 00-4.098-1.648h-4.275a5.816 5.816 0 001.498-3.921v-3.995zm8.205 20.227a52.784 52.784 0 0012.641 1.525c29.214 0 52.899-23.652 52.899-52.819 0-27.239-20.637-49.66-47.144-52.525h-.125a1 1 0 01-.292-.043 53.578 53.578 0 00-10.674 0 1.003 1.003 0 01-.294.044h-.127c-26.519 2.864-47.156 25.285-47.156 52.524 0 4.923.679 9.691 1.942 14.209a5.924 5.924 0 015.103-2.915h2.299a44.876 44.876 0 01-1.432-11.294c0-24.82 20.147-44.936 45.001-44.936s45.001 20.115 45.001 44.936-20.147 44.936-45.001 44.936c-4.289 0-8.451-.599-12.388-1.717.16.538.247 1.109.247 1.699v3.981c0 .851-.178 1.662-.5 2.395zm-5.381 1.539H70.083a3.933 3.933 0 01-3.881-3.934v-3.981a3.934 3.934 0 013.928-3.935h26.072c1.375 0 2.595.714 3.288 1.786l.003.005c.402.613.637 1.348.637 2.144v3.981c0 .886-.286 1.697-.773 2.348a.958.958 0 00-.103.132 3.884 3.884 0 01-.218.245l-.005.004a3.893 3.893 0 01-2.782 1.205zm-31.774-31.622v-2.944a.99.99 0 000-.337v-.701a3.934 3.934 0 013.928-3.935h26.072a3.934 3.934 0 013.928 3.935v3.982a3.934 3.934 0 01-3.928 3.934H68.403a3.934 3.934 0 01-3.928-3.934zM119 42.663v8.476a55.704 55.704 0 00-9.457 0v-8.476H119zm-57.56 90.255a3.924 3.924 0 00-3.943 3.921v3.995a3.925 3.925 0 003.942 3.921h26.058c1.147 0 2.17-.482 2.866-1.254l.009-.01.01-.01a3.812 3.812 0 001.043-2.647v-3.995a3.922 3.922 0 00-3.928-3.921H61.44zm-16.218-6.257v-.001a3.946 3.946 0 014.793-2.83l.001.001 3.858.994.004.001a3.929 3.929 0 012.844 4.782v.002l-6.514 25.187v.001a3.945 3.945 0 01-4.794 2.829l-3.87-.994h-.002a3.937 3.937 0 01-2.834-4.783v-.001l6.514-25.188z" fill="url(#paint23_linear)"/>
    <defs>
      <linearGradient id="paint0_linear" x1="92.242" y1="143.875" x2="93.538" y2="146.342" gradientUnits="userSpaceOnUse">
        <stop stop-color="#BCEB00"/>
        <stop offset="1" stop-color="#00EAEA"/>
      </linearGradient>
      <linearGradient id="paint1_linear" x1="21.589" y1="159.784" x2="21.771" y2="161.145" gradientUnits="userSpaceOnUse">
        <stop stop-color="#BCEB00"/>
        <stop offset="1" stop-color="#00EAEA"/>
      </linearGradient>
      <linearGradient id="paint2_linear" x1="81.977" y1="77.511" x2="142.876" y2="138.5" gradientUnits="userSpaceOnUse">
        <stop stop-color="#BCEB00"/>
        <stop offset="1" stop-color="#00EAEA"/>
      </linearGradient>
      <linearGradient id="paint3_linear" x1="9.491" y1="159.784" x2="9.841" y2="161.075" gradientUnits="userSpaceOnUse">
        <stop stop-color="#BCEB00"/>
        <stop offset="1" stop-color="#00EAEA"/>
      </linearGradient>
      <linearGradient id="paint4_linear" x1="71.788" y1="93.139" x2="85.646" y2="98.355" gradientUnits="userSpaceOnUse">
        <stop stop-color="#BCEB00"/>
        <stop offset="1" stop-color="#00EAEA"/>
      </linearGradient>
      <linearGradient id="paint5_linear" x1="95.243" y1="135.079" x2="102.154" y2="157.641" gradientUnits="userSpaceOnUse">
        <stop stop-color="#BCEB00"/>
        <stop offset="1" stop-color="#00EAEA"/>
      </linearGradient>
      <linearGradient id="paint6_linear" x1="110.881" y1="103.184" x2="117.274" y2="109.586" gradientUnits="userSpaceOnUse">
        <stop stop-color="#BCEB00"/>
        <stop offset="1" stop-color="#00EAEA"/>
      </linearGradient>
      <linearGradient id="paint7_linear" x1="114.404" y1="82.164" x2="115.788" y2="82.223" gradientUnits="userSpaceOnUse">
        <stop stop-color="#BCEB00"/>
        <stop offset="1" stop-color="#00EAEA"/>
      </linearGradient>
      <linearGradient id="paint8_linear" x1="117.93" y1="111.209" x2="123.129" y2="115.989" gradientUnits="userSpaceOnUse">
        <stop stop-color="#BCEB00"/>
        <stop offset="1" stop-color="#00EAEA"/>
      </linearGradient>
      <linearGradient id="paint9_linear" x1="110.067" y1="42.406" x2="111.92" y2="47.504" gradientUnits="userSpaceOnUse">
        <stop stop-color="#BCEB00"/>
        <stop offset="1" stop-color="#00EAEA"/>
      </linearGradient>
      <linearGradient id="paint10_linear" x1="52.842" y1="2.274" x2="57.791" y2="7.227" gradientUnits="userSpaceOnUse">
        <stop stop-color="#BCEB00"/>
        <stop offset="1" stop-color="#00EAEA"/>
      </linearGradient><linearGradient id="paint11_linear" x1="20.119" y1="98.49" x2="23.879" y2="102.256" gradientUnits="userSpaceOnUse">
      <stop stop-color="#BCEB00"/>
      <stop offset="1" stop-color="#00EAEA"/>
    </linearGradient>
      <linearGradient id="paint12_linear" x1="99.373" y1="4.605" x2="104.036" y2="9.275" gradientUnits="userSpaceOnUse">
        <stop stop-color="#BCEB00"/>
        <stop offset="1" stop-color="#00EAEA"/>
      </linearGradient>
      <linearGradient id="paint13_linear" x1="117.845" y1="18.429" x2="123.187" y2="23.771" gradientUnits="userSpaceOnUse">
        <stop stop-color="#BCEB00"/>
        <stop offset="1" stop-color="#00EAEA"/>
      </linearGradient>
      <linearGradient id="paint14_linear" x1="159.159" y1="34.305" x2="163.808" y2="38.96" gradientUnits="userSpaceOnUse">
        <stop stop-color="#BCEB00"/>
        <stop offset="1" stop-color="#00EAEA"/>
      </linearGradient>
      <linearGradient id="paint15_linear" x1="44.091" y1="65.292" x2="50.329" y2="71.539" gradientUnits="userSpaceOnUse">
        <stop stop-color="#BCEB00"/>
        <stop offset="1" stop-color="#00EAEA"/>
      </linearGradient>
      <linearGradient id="paint16_linear" x1="73.577" y1="27.285" x2="78.911" y2="32.627" gradientUnits="userSpaceOnUse">
        <stop stop-color="#BCEB00"/>
        <stop offset="1" stop-color="#00EAEA"/>
      </linearGradient>
      <linearGradient id="paint17_linear" x1="69.981" y1="148.226" x2="76.425" y2="164.94" gradientUnits="userSpaceOnUse">
        <stop stop-color="#BCEB00"/>
        <stop offset="1" stop-color="#00EAEA"/>
      </linearGradient>
      <linearGradient id="paint18_linear" x1="61.316" y1="141.815" x2="62.18" y2="148.346" gradientUnits="userSpaceOnUse">
        <stop stop-color="#BCEB00"/>
        <stop offset="1" stop-color="#00EAEA"/>
      </linearGradient>
      <linearGradient id="paint19_linear" x1="70.02" y1="155.666" x2="70.885" y2="162.197" gradientUnits="userSpaceOnUse">
        <stop stop-color="#BCEB00"/>
        <stop offset="1" stop-color="#00EAEA"/>
      </linearGradient>
      <linearGradient id="paint20_linear" x1="47.428" y1="130.683" x2="62.984" y2="136.285" gradientUnits="userSpaceOnUse">
        <stop stop-color="#BCEB00"/>
        <stop offset="1" stop-color="#00EAEA"/>
      </linearGradient>
      <linearGradient id="paint21_linear" x1="40.28" y1="129.137" x2="61.62" y2="141.132" gradientUnits="userSpaceOnUse">
        <stop stop-color="#BCEB00"/>
        <stop offset="1" stop-color="#00EAEA"/>
      </linearGradient>
      <linearGradient id="paint22_linear" x1="68.153" y1="127.978" x2="69.017" y2="134.51" gradientUnits="userSpaceOnUse">
        <stop stop-color="#BCEB00"/>
        <stop offset="1" stop-color="#00EAEA"/>
      </linearGradient>
      <linearGradient id="paint23_linear" x1="53.274" y1="54.664" x2="142.511" y2="148.791" gradientUnits="userSpaceOnUse">
        <stop stop-color="#BCEB00"/>
        <stop offset="1" stop-color="#00EAEA"/>
      </linearGradient>
    </defs>
  </symbol>
</svg>
